<svg width="761" height="318" viewBox="0 0 761 318" fill="none" xmlns="http://www.w3.org/2000/svg">
<mask id="path-1-inside-1_55_10" fill="white">
<path d="M335 109L334 110H328L327 111H323L322 112H321L320 113H318L317 114H316L315 115H314L312 117H311L304 124V125L302 127V128L300 130V131L299 132V134L298 135V137L297 138V141L296 142V156L297 157V161L296 162H289L288 161H287L286 160H285L284 159H283L282 158H279L278 159V161L277 162V163L270 170H269L267 172H265L264 173H263L262 174H260L259 175H258L257 176H256L255 177V178L254 179V186L253 187V188L251 190H248L247 191H235L233 193V199L234 200V201L235 202V206L236 207V208L235 209V213L233 215V217L232 218V219L231 220V223L230 224V227L229 228V239L230 240V244L231 245V249L232 250V251L233 252V255L234 256V257L235 258V260L237 262H238L239 263L240 262H466L467 263H478L479 262H497L498 263H505L506 262H507L509 260V258L510 257V252L509 251V250L504 245V243L505 242V240L506 239V237L505 236V234L504 233V231L503 230V228L502 227V217L504 215V207L502 205H500L499 204H497L495 202H494L493 201V200L491 198V187L489 185V184L485 180H484L481 177H480L479 176H477L475 174V167L472 164H466L465 165H463L462 166H448L447 165H446L442 161V141L441 140V139L440 138V135L439 134V133L438 132V130L436 128V127L434 125V124L429 119H428L427 118V117H426L425 116H424L422 114H421L420 113H418L417 112H416L415 111H412L411 110H400L399 111H394L393 112H392L391 113H389L388 114H387L386 115H385L383 117H382L380 119H379L376 122V123L373 126V127L370 130L369 129V128L359 118H358L355 115H354L353 114H352L351 113H350L349 112H348L347 111H343L342 110H336L335 109Z"/>
</mask>
<path d="M335 109L334 110H328L327 111H323L322 112H321L320 113H318L317 114H316L315 115H314L312 117H311L304 124V125L302 127V128L300 130V131L299 132V134L298 135V137L297 138V141L296 142V156L297 157V161L296 162H289L288 161H287L286 160H285L284 159H283L282 158H279L278 159V161L277 162V163L270 170H269L267 172H265L264 173H263L262 174H260L259 175H258L257 176H256L255 177V178L254 179V186L253 187V188L251 190H248L247 191H235L233 193V199L234 200V201L235 202V206L236 207V208L235 209V213L233 215V217L232 218V219L231 220V223L230 224V227L229 228V239L230 240V244L231 245V249L232 250V251L233 252V255L234 256V257L235 258V260L237 262H238L239 263L240 262H466L467 263H478L479 262H497L498 263H505L506 262H507L509 260V258L510 257V252L509 251V250L504 245V243L505 242V240L506 239V237L505 236V234L504 233V231L503 230V228L502 227V217L504 215V207L502 205H500L499 204H497L495 202H494L493 201V200L491 198V187L489 185V184L485 180H484L481 177H480L479 176H477L475 174V167L472 164H466L465 165H463L462 166H448L447 165H446L442 161V141L441 140V139L440 138V135L439 134V133L438 132V130L436 128V127L434 125V124L429 119H428L427 118V117H426L425 116H424L422 114H421L420 113H418L417 112H416L415 111H412L411 110H400L399 111H394L393 112H392L391 113H389L388 114H387L386 115H385L383 117H382L380 119H379L376 122V123L373 126V127L370 130L369 129V128L359 118H358L355 115H354L353 114H352L351 113H350L349 112H348L347 111H343L342 110H336L335 109Z" fill="#4968DC" stroke="black" stroke-width="6" mask="url(#path-1-inside-1_55_10)"/>
<path d="M335 110.5C356.356 110.5 373.5 126.707 373.5 146.5C373.5 166.293 356.356 182.5 335 182.5C313.644 182.5 296.5 166.293 296.5 146.5C296.5 126.707 313.644 110.5 335 110.5Z" fill="white" stroke="black" stroke-width="3"/>
<path d="M404.5 110.5C425.561 110.5 442.5 126.69 442.5 146.5C442.5 166.31 425.561 182.5 404.5 182.5C383.439 182.5 366.5 166.31 366.5 146.5C366.5 126.69 383.439 110.5 404.5 110.5Z" fill="white" stroke="black" stroke-width="3"/>
<ellipse cx="345" cy="158.5" rx="10" ry="9.5" fill="black"/>
<ellipse cx="391" cy="139.5" rx="10" ry="9.5" fill="black"/>
<path d="M268.087 220.016C267.385 221.245 266.859 223.087 267.034 224.228C267.21 225.808 268.087 226.334 270.983 226.861C276.599 227.826 279.407 229.669 287.743 237.917C295.115 245.201 295.553 245.903 297.484 252.309L299.502 259.153H372.16H444.819L446.661 251.607C447.714 247.395 449.206 242.832 449.908 241.34C452.014 237.479 456.402 233.793 460.351 232.74C462.281 232.214 465.177 230.634 466.757 229.23C468.336 227.826 470.442 226.685 471.495 226.685C473.075 226.685 473.25 226.334 472.724 223.877C471.583 218.261 468.775 217.208 467.108 221.771C465.791 225.281 459.824 229.669 454.296 231.161C448.943 232.652 436.57 231.687 431.48 229.406C429.111 228.44 427.093 227.563 426.83 227.563C426.654 227.563 426.742 228.879 427.005 230.546C427.444 232.74 427.268 233.618 426.215 233.969C423.583 235.022 410.332 229.757 401.82 224.404C399.978 223.263 398.398 222.298 398.31 222.298C398.135 222.298 398.047 223.614 398.047 225.106C398.047 228.002 397.959 228.002 394.186 227.826C391.466 227.738 389.184 226.773 385.85 224.579C379.444 220.104 374.881 220.543 367.422 226.597C365.14 228.44 363.034 229.318 361.104 229.318C357.681 229.318 357.418 228.353 359.875 225.193C363.648 220.367 360.753 220.104 354.873 224.579C349.871 228.44 347.239 229.581 339.254 231.599L333.374 233.091L331.268 230.371L329.074 227.651L323.02 230.283C319.685 231.687 316.438 232.828 315.824 232.828C313.542 232.828 312.665 231.073 313.455 228.177C313.893 226.685 314.069 225.281 313.806 225.106C313.63 224.93 309.857 226.159 305.469 228.002C290.902 233.793 283.18 232.301 275.985 222.298C272.475 217.384 270.281 216.769 268.087 220.016Z" fill="black"/>
<mask id="path-7-inside-2_55_10" fill="white">
<path d="M578 219L577 220H574L573 221H571L569 223H568L562 229H561L560 230H559L558 229H545L544 230H543L542 231H540L538 233H537L531 239H530V240L524 246V247L521 250V251L518 254V255L516 257V258L514 260V263H517L518 262H530L531 263L532 262L533 263V264L535 266V267L537 269V270L539 272V273L541 275V276L543 278V279L548 284V285L549 286H550L555 291H556L557 292H558L559 293H560L561 294H571L572 293H573L576 290H577V289L582 284H583L586 287H587L589 289H590L591 290H602L603 289H604L605 288H606L607 287H608L610 285V284L613 281L615 283H616L617 284H619L620 285H627L628 284H631L633 282H634L637 279H638V278L640 276V272L641 271H643L645 273H649L650 274H652L653 273H656L658 271H659L661 269H662V268L664 266V265L665 264V262L666 261V258L665 257V254L664 253V252L663 251V250L661 248V247L657 243V242L654 239H653L651 237H650L648 235H645L644 234H634L633 235H630L625 230V229L623 227H622L620 225H619L618 224H617L616 223H614L613 222H610L609 221H603L602 222H600L599 223H597L596 224H595L594 225L593 224H592L591 223H589L588 222H587L586 221H583L582 220H579L578 219Z"/>
</mask>
<path d="M578 219L577 220H574L573 221H571L569 223H568L562 229H561L560 230H559L558 229H545L544 230H543L542 231H540L538 233H537L531 239H530V240L524 246V247L521 250V251L518 254V255L516 257V258L514 260V263H517L518 262H530L531 263L532 262L533 263V264L535 266V267L537 269V270L539 272V273L541 275V276L543 278V279L548 284V285L549 286H550L555 291H556L557 292H558L559 293H560L561 294H571L572 293H573L576 290H577V289L582 284H583L586 287H587L589 289H590L591 290H602L603 289H604L605 288H606L607 287H608L610 285V284L613 281L615 283H616L617 284H619L620 285H627L628 284H631L633 282H634L637 279H638V278L640 276V272L641 271H643L645 273H649L650 274H652L653 273H656L658 271H659L661 269H662V268L664 266V265L665 264V262L666 261V258L665 257V254L664 253V252L663 251V250L661 248V247L657 243V242L654 239H653L651 237H650L648 235H645L644 234H634L633 235H630L625 230V229L623 227H622L620 225H619L618 224H617L616 223H614L613 222H610L609 221H603L602 222H600L599 223H597L596 224H595L594 225L593 224H592L591 223H589L588 222H587L586 221H583L582 220H579L578 219Z" fill="#4968DC" stroke="black" stroke-width="6" mask="url(#path-7-inside-2_55_10)"/>
<path d="M581.657 282.564L578.295 265.011L573.16 254.174L565.989 240.231L560 231" stroke="black" stroke-width="3"/>
<path d="M613.5 279L609.674 258.395L606.334 249L599.989 236.663L594 227.432" stroke="black" stroke-width="3"/>
<path d="M642 271L640.717 256.992L638.608 250.841L633.97 243.051L629.5 236.5" stroke="black" stroke-width="3"/>
<mask id="path-11-inside-3_55_10" fill="white">
<path d="M173.842 226L174.704 227H177.289L178.151 228H179.875L181.599 230H182.461L187.632 236H188.493L189.355 237H190.217L191.079 236H202.283L203.145 237H204.007L204.868 238H206.592L208.316 240H209.178L214.349 246H215.211V247L220.382 253V254L222.967 257V258L225.553 261V262L227.276 264V265L229 267V270H226.414L225.553 269H215.211L214.349 270L213.487 269L212.625 270V271L210.901 273V274L209.178 276V277L207.454 279V280L205.73 282V283L204.007 285V286L199.697 291V292L198.836 293H197.974L193.664 298H192.803L191.941 299H191.079L190.217 300H189.355L188.493 301H179.875L179.013 300H178.151L175.566 297H174.704V296L170.395 291H169.533L166.947 294H166.086L164.362 296H163.5L162.638 297H153.158L152.296 296H151.434L150.572 295H149.711L148.849 294H147.987L146.263 292V291L143.678 288L141.954 290H141.092L140.23 291H138.507L137.645 292H131.612L130.75 291H128.164L126.441 289H125.579L122.993 286H122.132V285L120.408 283V279L119.546 278H117.822L116.099 280H112.651L111.789 281H110.066L109.204 280H106.618L104.895 278H104.033L102.309 276H101.447V275L99.7237 273V272L98.8618 271V269L98 268V265L98.8618 264V261L99.7237 260V259L100.586 258V257L102.309 255V254L105.757 250V249L108.342 246H109.204L110.928 244H111.789L113.513 242H116.099L116.961 241H125.579L126.441 242H129.026L133.336 237V236L135.059 234H135.921L137.645 232H138.507L139.368 231H140.23L141.092 230H142.816L143.678 229H146.263L147.125 228H152.296L153.158 229H154.882L155.743 230H157.467L158.329 231H159.191L160.053 232L160.914 231H161.776L162.638 230H164.362L165.224 229H166.086L166.947 228H169.533L170.395 227H172.98L173.842 226Z"/>
</mask>
<path d="M173.842 226L174.704 227H177.289L178.151 228H179.875L181.599 230H182.461L187.632 236H188.493L189.355 237H190.217L191.079 236H202.283L203.145 237H204.007L204.868 238H206.592L208.316 240H209.178L214.349 246H215.211V247L220.382 253V254L222.967 257V258L225.553 261V262L227.276 264V265L229 267V270H226.414L225.553 269H215.211L214.349 270L213.487 269L212.625 270V271L210.901 273V274L209.178 276V277L207.454 279V280L205.73 282V283L204.007 285V286L199.697 291V292L198.836 293H197.974L193.664 298H192.803L191.941 299H191.079L190.217 300H189.355L188.493 301H179.875L179.013 300H178.151L175.566 297H174.704V296L170.395 291H169.533L166.947 294H166.086L164.362 296H163.5L162.638 297H153.158L152.296 296H151.434L150.572 295H149.711L148.849 294H147.987L146.263 292V291L143.678 288L141.954 290H141.092L140.23 291H138.507L137.645 292H131.612L130.75 291H128.164L126.441 289H125.579L122.993 286H122.132V285L120.408 283V279L119.546 278H117.822L116.099 280H112.651L111.789 281H110.066L109.204 280H106.618L104.895 278H104.033L102.309 276H101.447V275L99.7237 273V272L98.8618 271V269L98 268V265L98.8618 264V261L99.7237 260V259L100.586 258V257L102.309 255V254L105.757 250V249L108.342 246H109.204L110.928 244H111.789L113.513 242H116.099L116.961 241H125.579L126.441 242H129.026L133.336 237V236L135.059 234H135.921L137.645 232H138.507L139.368 231H140.23L141.092 230H142.816L143.678 229H146.263L147.125 228H152.296L153.158 229H154.882L155.743 230H157.467L158.329 231H159.191L160.053 232L160.914 231H161.776L162.638 230H164.362L165.224 229H166.086L166.947 228H169.533L170.395 227H172.98L173.842 226Z" fill="#4968DC" stroke="black" stroke-width="6" mask="url(#path-11-inside-3_55_10)"/>
<path d="M170.69 289.564L173.588 272.011L178.014 261.174L184.193 247.231L189.355 238" stroke="black" stroke-width="3"/>
<path d="M143.247 286L146.544 265.395L149.423 256L154.891 243.663L160.053 234.432" stroke="black" stroke-width="3"/>
<path d="M118.684 278L119.79 263.992L121.607 257.841L125.605 250.051L129.457 243.5" stroke="black" stroke-width="3"/>
<mask id="path-15-inside-4_55_10" fill="white">
<path d="M161 22L160 23H151L150 24H149L148 25H146L145 26H144L143 27H142L140 29H139L136 32H135L133 34V35L130 38V39L129 40V41L127 43V45L126 46V47L125 48V54L124 55V62L125 63V69L126 70V71L127 72V74L129 76V78L133 82V83L135 85H136L137 86V87H138L140 89H141L143 91H145L146 92H147L148 93H150L151 94H156L157 95H509L510 96V97L509 98V99L508 100V101L507 102V103L506 104V105L505 106V107L504 108V109L503 110V111L502 112V113L500 115V116L499 117V118L498 119V120L496 122V123L492 127V128L490 130V131L489 132H488V133L482 139V140L477 145H481L482 144H483L484 143H487L488 142H489L490 141H492L493 140H494L495 139H497L498 138H499L500 137H502L503 136H504L505 135H506L507 134H508L509 133H510L511 132H512L513 131H514L515 130H516L517 129H518L519 128H520L522 126H523L525 124H526L528 122H529L533 118H534V117L535 116H536L542 110V109L543 108H544V107L548 103V102L552 98V97L554 95H589L590 94H595L596 93H598L599 92H601L603 90H605L608 87H609L614 82V81L617 78V77L618 76V75L619 74V73L620 72V70L621 69V67L622 66V51L621 50V48L620 47V45L619 44V43L618 42V41L616 39V38L614 36V35L610 31H609L605 27H603L601 25H598L597 24H596L595 23H580L579 22L578 23L577 22L576 23L575 22L574 23H476L475 22H474L473 23H375L374 22L373 23L372 22L371 23H274L273 22H271L270 23H171L170 22L169 23H168L167 22L166 23H162L161 22Z"/>
</mask>
<path d="M161 22L160 23H151L150 24H149L148 25H146L145 26H144L143 27H142L140 29H139L136 32H135L133 34V35L130 38V39L129 40V41L127 43V45L126 46V47L125 48V54L124 55V62L125 63V69L126 70V71L127 72V74L129 76V78L133 82V83L135 85H136L137 86V87H138L140 89H141L143 91H145L146 92H147L148 93H150L151 94H156L157 95H509L510 96V97L509 98V99L508 100V101L507 102V103L506 104V105L505 106V107L504 108V109L503 110V111L502 112V113L500 115V116L499 117V118L498 119V120L496 122V123L492 127V128L490 130V131L489 132H488V133L482 139V140L477 145H481L482 144H483L484 143H487L488 142H489L490 141H492L493 140H494L495 139H497L498 138H499L500 137H502L503 136H504L505 135H506L507 134H508L509 133H510L511 132H512L513 131H514L515 130H516L517 129H518L519 128H520L522 126H523L525 124H526L528 122H529L533 118H534V117L535 116H536L542 110V109L543 108H544V107L548 103V102L552 98V97L554 95H589L590 94H595L596 93H598L599 92H601L603 90H605L608 87H609L614 82V81L617 78V77L618 76V75L619 74V73L620 72V70L621 69V67L622 66V51L621 50V48L620 47V45L619 44V43L618 42V41L616 39V38L614 36V35L610 31H609L605 27H603L601 25H598L597 24H596L595 23H580L579 22L578 23L577 22L576 23L575 22L574 23H476L475 22H474L473 23H375L374 22L373 23L372 22L371 23H274L273 22H271L270 23H171L170 22L169 23H168L167 22L166 23H162L161 22Z" fill="white" stroke="black" stroke-width="6" mask="url(#path-15-inside-4_55_10)"/>
</svg>
